<svg xmlns="http://www.w3.org/2000/svg" width="20pt" height="20pt" viewBox="0 0 20 20"><g fill="#a0a0a0"><path d="M15.348 11.422h-.715a.347.347 0 00-.258.098.35.35 0 00-.102.257v3.57c0 .489-.171.91-.523 1.258-.348.352-.77.524-1.258.524H3.211c-.488 0-.91-.172-1.258-.524a1.709 1.709 0 01-.527-1.257V6.066c0-.492.176-.91.527-1.257.348-.352.77-.528 1.258-.528h7.851a.347.347 0 00.258-.097.35.35 0 00.102-.258V3.21a.348.348 0 00-.36-.356H3.212c-.883 0-1.64.313-2.27.942A3.094 3.094 0 000 6.067v9.28c0 .883.313 1.641.941 2.27a3.11 3.11 0 002.27.942h9.281a3.11 3.11 0 002.27-.942 3.094 3.094 0 00.941-2.27v-3.57a.35.35 0 00-.101-.257.344.344 0 00-.254-.098zm0 0"/><path d="M19.773 1.64a.692.692 0 00-.503-.214h-5.707a.692.692 0 00-.504.215.685.685 0 00-.211.5c0 .195.07.363.21.504l1.965 1.96L7.75 11.88a.352.352 0 000 .512l1.273 1.27c.075.073.16.112.254.112.098 0 .184-.039.258-.113l7.274-7.27 1.96 1.962c.141.144.31.214.504.214.192 0 .36-.07.5-.214.141-.141.211-.309.211-.5V2.14c0-.192-.07-.36-.21-.5zm0 0"/></g></svg>