<?xml version="1.0" standalone="no"?>
<!DOCTYPE svg PUBLIC "-//W3C//DTD SVG 20010904//EN"
 "http://www.w3.org/TR/2001/REC-SVG-20010904/DTD/svg10.dtd">
<svg version="1.0" xmlns="http://www.w3.org/2000/svg"
 width="260.000000pt" height="260.000000pt" viewBox="0 0 260.000000 260.000000"
 preserveAspectRatio="xMidYMid meet">
<metadata>
Created by potrace 1.11, written by Peter Selinger 2001-2013
</metadata>
<g transform="translate(0.000000,260.000000) scale(0.100000,-0.100000)"
fill="#000000" stroke="none">
<path d="M1700 1936 c0 -2 50 -66 111 -142 l111 -139 -871 -3 c-568 -1 -871
-6 -872 -12 0 -6 -1 -39 -1 -75 0 -36 1 -71 1 -78 1 -10 194 -12 942 -12 l941
0 32 -39 c17 -22 51 -61 75 -88 l44 -48 -37 -38 c-21 -20 -54 -58 -74 -84
l-36 -48 -943 0 c-621 0 -943 -3 -944 -10 -1 -13 -1 -91 0 -132 l1 -33 870 0
c479 1 870 -1 870 -3 0 -2 -47 -63 -105 -136 -57 -72 -106 -135 -107 -141 -2
-6 39 -10 105 -10 l109 0 31 40 c17 22 34 42 37 45 3 3 42 52 87 110 45 58
139 177 208 265 70 88 129 165 132 172 4 10 -45 81 -77 113 -3 3 -27 34 -55
70 -27 36 -54 70 -60 76 -5 7 -19 24 -30 39 -21 30 -175 226 -204 260 -9 11
-27 35 -39 53 l-23 32 -115 0 c-63 0 -114 -2 -114 -4z"/>
</g>
</svg>
